<?xml version="1.0" encoding="UTF-8" standalone="no"?><!DOCTYPE svg PUBLIC "-//W3C//DTD SVG 1.1//EN" "http://www.w3.org/Graphics/SVG/1.1/DTD/svg11.dtd"><!-- Generated by graphviz version 2.40.1 (20161225.0304)
 --><!-- Title: G Pages: 1 --><svg xmlns="http://www.w3.org/2000/svg" xmlns:xlink="http://www.w3.org/1999/xlink" width="608pt" height="453pt" viewBox="0.00 0.00 607.52 452.60">
<g id="graph0" class="graph" transform="scale(1 1) rotate(0) translate(4 448.6)">
<title>G</title>
<polygon fill="#ffffff" stroke="transparent" points="-4,4 -4,-448.6 603.5162,-448.6 603.5162,4 -4,4"/>
<!-- Iphone -->
<g id="node1" class="node">
<title>Iphone</title>
<polygon fill="none" stroke="#000000" points="238.5062,-332.1 238.5062,-444.1 366.849,-444.1 366.849,-332.1 238.5062,-332.1"/>
<text text-anchor="middle" x="302.6776" y="-429.3" font-family="Helvetica,sans-Serif" font-size="12.00" fill="#000000">Iphone</text>
<polyline fill="none" stroke="#000000" points="238.5062,-421.7 366.849,-421.7 "/>
<text text-anchor="middle" x="302.6776" y="-406.9" font-family="Helvetica,sans-Serif" font-size="12.00" fill="#000000">+ main(args: String[])</text>
<polyline fill="none" stroke="#000000" points="238.5062,-399.3 366.849,-399.3 "/>
<text text-anchor="middle" x="302.6776" y="-384.5" font-family="Helvetica,sans-Serif" font-size="12.00" fill="#000000">+ appMusic()</text>
<polyline fill="none" stroke="#000000" points="238.5062,-376.9 366.849,-376.9 "/>
<text text-anchor="middle" x="302.6776" y="-362.1" font-family="Helvetica,sans-Serif" font-size="12.00" fill="#000000">+ appPhone()</text>
<polyline fill="none" stroke="#000000" points="238.5062,-354.5 366.849,-354.5 "/>
<text text-anchor="middle" x="302.6776" y="-339.7" font-family="Helvetica,sans-Serif" font-size="12.00" fill="#000000">+ appBrowser()</text>
</g>
<!-- BrowserInternet -->
<g id="node2" class="node">
<title>BrowserInternet</title>
<polygon fill="none" stroke="#000000" points="0,-166.3 0,-255.9 199.3552,-255.9 199.3552,-166.3 0,-166.3"/>
<text text-anchor="middle" x="99.6776" y="-241.1" font-family="Helvetica,sans-Serif" font-size="12.00" fill="#000000">Controller.internet.BrowserInternet</text>
<polyline fill="none" stroke="#000000" points="0,-233.5 199.3552,-233.5 "/>
<text text-anchor="middle" x="99.6776" y="-218.7" font-family="Helvetica,sans-Serif" font-size="12.00" fill="#000000">+ main()</text>
<polyline fill="none" stroke="#000000" points="0,-211.1 199.3552,-211.1 "/>
<text text-anchor="middle" x="99.6776" y="-196.3" font-family="Helvetica,sans-Serif" font-size="12.00" fill="#000000">+ search(search: String)</text>
<polyline fill="none" stroke="#000000" points="0,-188.7 199.3552,-188.7 "/>
<text text-anchor="middle" x="99.6776" y="-173.9" font-family="Helvetica,sans-Serif" font-size="12.00" fill="#000000">+ display()</text>
</g>
<!-- Iphone&#45;&gt;BrowserInternet -->
<g id="edge1" class="edge">
<title>Iphone-&gt;BrowserInternet</title>
<path fill="none" stroke="#000000" d="M238.4471,-332.0961C212.9723,-309.8841 183.8602,-284.5006 158.9009,-262.738"/>
<polygon fill="#000000" stroke="#000000" points="161.1343,-260.0418 151.2969,-256.1079 156.534,-265.3179 161.1343,-260.0418"/>
<text text-anchor="middle" x="225.7295" y="-301" font-family="Times,serif" font-size="14.00" fill="#000000">uses</text>
</g>
<!-- MusicPlayer -->
<g id="node3" class="node">
<title>MusicPlayer</title>
<polygon fill="none" stroke="#000000" points="217.0154,-155.1 217.0154,-267.1 388.3398,-267.1 388.3398,-155.1 217.0154,-155.1"/>
<text text-anchor="middle" x="302.6776" y="-252.3" font-family="Helvetica,sans-Serif" font-size="12.00" fill="#000000">Controller.music.MusicPlayer</text>
<polyline fill="none" stroke="#000000" points="217.0154,-244.7 388.3398,-244.7 "/>
<text text-anchor="middle" x="302.6776" y="-229.9" font-family="Helvetica,sans-Serif" font-size="12.00" fill="#000000">+ main()</text>
<polyline fill="none" stroke="#000000" points="217.0154,-222.3 388.3398,-222.3 "/>
<text text-anchor="middle" x="302.6776" y="-207.5" font-family="Helvetica,sans-Serif" font-size="12.00" fill="#000000">+ selecionar()</text>
<polyline fill="none" stroke="#000000" points="217.0154,-199.9 388.3398,-199.9 "/>
<text text-anchor="middle" x="302.6776" y="-185.1" font-family="Helvetica,sans-Serif" font-size="12.00" fill="#000000">+ tocar(music: String)</text>
<polyline fill="none" stroke="#000000" points="217.0154,-177.5 388.3398,-177.5 "/>
<text text-anchor="middle" x="302.6776" y="-162.7" font-family="Helvetica,sans-Serif" font-size="12.00" fill="#000000">+ pausar()</text>
</g>
<!-- Iphone&#45;&gt;MusicPlayer -->
<g id="edge2" class="edge">
<title>Iphone-&gt;MusicPlayer</title>
<path fill="none" stroke="#000000" d="M302.6776,-332.0961C302.6776,-314.7439 302.6776,-295.4563 302.6776,-277.4715"/>
<polygon fill="#000000" stroke="#000000" points="306.1777,-277.3471 302.6776,-267.3471 299.1777,-277.3471 306.1777,-277.3471"/>
<text text-anchor="middle" x="314.7295" y="-301" font-family="Times,serif" font-size="14.00" fill="#000000">uses</text>
</g>
<!-- PhoneController -->
<g id="node4" class="node">
<title>PhoneController</title>
<polygon fill="none" stroke="#000000" points="416.834,-143.9 416.834,-278.3 566.5212,-278.3 566.5212,-143.9 416.834,-143.9"/>
<text text-anchor="middle" x="491.6776" y="-263.5" font-family="Helvetica,sans-Serif" font-size="12.00" fill="#000000">Controller.phone.Phone</text>
<polyline fill="none" stroke="#000000" points="416.834,-255.9 566.5212,-255.9 "/>
<text text-anchor="middle" x="491.6776" y="-241.1" font-family="Helvetica,sans-Serif" font-size="12.00" fill="#000000">+ main()</text>
<polyline fill="none" stroke="#000000" points="416.834,-233.5 566.5212,-233.5 "/>
<text text-anchor="middle" x="491.6776" y="-218.7" font-family="Helvetica,sans-Serif" font-size="12.00" fill="#000000">+ turnOff()</text>
<polyline fill="none" stroke="#000000" points="416.834,-211.1 566.5212,-211.1 "/>
<text text-anchor="middle" x="491.6776" y="-196.3" font-family="Helvetica,sans-Serif" font-size="12.00" fill="#000000">+ turnOn(number: String)</text>
<polyline fill="none" stroke="#000000" points="416.834,-188.7 566.5212,-188.7 "/>
<text text-anchor="middle" x="491.6776" y="-173.9" font-family="Helvetica,sans-Serif" font-size="12.00" fill="#000000">+ meet()</text>
<polyline fill="none" stroke="#000000" points="416.834,-166.3 566.5212,-166.3 "/>
<text text-anchor="middle" x="491.6776" y="-151.5" font-family="Helvetica,sans-Serif" font-size="12.00" fill="#000000">+ voiceMail()</text>
</g>
<!-- Iphone&#45;&gt;PhoneController -->
<g id="edge3" class="edge">
<title>Iphone-&gt;PhoneController</title>
<path fill="none" stroke="#000000" d="M362.4784,-332.0961C378.234,-317.3408 395.484,-301.1861 412.1023,-285.6229"/>
<polygon fill="#000000" stroke="#000000" points="414.7791,-287.9113 419.6856,-278.521 409.9942,-282.802 414.7791,-287.9113"/>
<text text-anchor="middle" x="409.7295" y="-301" font-family="Times,serif" font-size="14.00" fill="#000000">uses</text>
</g>
<!-- Browser -->
<g id="node5" class="node">
<title>Browser</title>
<polygon fill="none" stroke="#000000" points="6.4938,-.5 6.4938,-90.1 192.8614,-90.1 192.8614,-.5 6.4938,-.5"/>
<text text-anchor="middle" x="99.6776" y="-75.3" font-family="Helvetica,sans-Serif" font-size="12.00" fill="#000000">Model.Browser</text>
<polyline fill="none" stroke="#000000" points="6.4938,-67.7 192.8614,-67.7 "/>
<text text-anchor="middle" x="99.6776" y="-52.9" font-family="Helvetica,sans-Serif" font-size="12.00" fill="#000000">+ search: String</text>
<polyline fill="none" stroke="#000000" points="6.4938,-45.3 192.8614,-45.3 "/>
<text text-anchor="middle" x="99.6776" y="-30.5" font-family="Helvetica,sans-Serif" font-size="12.00" fill="#000000">+ setSearch(newSearch: String)</text>
<polyline fill="none" stroke="#000000" points="6.4938,-22.9 192.8614,-22.9 "/>
<text text-anchor="middle" x="99.6776" y="-8.1" font-family="Helvetica,sans-Serif" font-size="12.00" fill="#000000">+ getSearch(): String</text>
</g>
<!-- BrowserInternet&#45;&gt;Browser -->
<g id="edge4" class="edge">
<title>BrowserInternet-&gt;Browser</title>
<path fill="none" stroke="#000000" d="M99.6776,-166.2321C99.6776,-145.9576 99.6776,-121.8084 99.6776,-100.4407"/>
<polygon fill="#000000" stroke="#000000" points="103.1777,-100.2037 99.6776,-90.2037 96.1777,-100.2038 103.1777,-100.2037"/>
<text text-anchor="middle" x="111.7295" y="-112.8" font-family="Times,serif" font-size="14.00" fill="#000000">uses</text>
</g>
<!-- Music -->
<g id="node6" class="node">
<title>Music</title>
<polygon fill="none" stroke="#000000" points="213.1754,-.5 213.1754,-90.1 386.1798,-90.1 386.1798,-.5 213.1754,-.5"/>
<text text-anchor="middle" x="299.6776" y="-75.3" font-family="Helvetica,sans-Serif" font-size="12.00" fill="#000000">Model.Music</text>
<polyline fill="none" stroke="#000000" points="213.1754,-67.7 386.1798,-67.7 "/>
<text text-anchor="middle" x="299.6776" y="-52.9" font-family="Helvetica,sans-Serif" font-size="12.00" fill="#000000">+ music: String</text>
<polyline fill="none" stroke="#000000" points="213.1754,-45.3 386.1798,-45.3 "/>
<text text-anchor="middle" x="299.6776" y="-30.5" font-family="Helvetica,sans-Serif" font-size="12.00" fill="#000000">+ setMusic(newMusic: String)</text>
<polyline fill="none" stroke="#000000" points="213.1754,-22.9 386.1798,-22.9 "/>
<text text-anchor="middle" x="299.6776" y="-8.1" font-family="Helvetica,sans-Serif" font-size="12.00" fill="#000000">+ getMusic(): String</text>
</g>
<!-- MusicPlayer&#45;&gt;Music -->
<g id="edge5" class="edge">
<title>MusicPlayer-&gt;Music</title>
<path fill="none" stroke="#000000" d="M301.6619,-154.9677C301.3422,-137.2979 300.9896,-117.8107 300.6714,-100.2258"/>
<polygon fill="#000000" stroke="#000000" points="304.169,-100.0551 300.4886,-90.1201 297.1702,-100.1818 304.169,-100.0551"/>
<text text-anchor="middle" x="313.7295" y="-112.8" font-family="Times,serif" font-size="14.00" fill="#000000">uses</text>
</g>
<!-- PhoneModel -->
<g id="node7" class="node">
<title>PhoneModel</title>
<polygon fill="none" stroke="#000000" points="403.839,-.5 403.839,-90.1 599.5162,-90.1 599.5162,-.5 403.839,-.5"/>
<text text-anchor="middle" x="501.6776" y="-75.3" font-family="Helvetica,sans-Serif" font-size="12.00" fill="#000000">Model.Phone</text>
<polyline fill="none" stroke="#000000" points="403.839,-67.7 599.5162,-67.7 "/>
<text text-anchor="middle" x="501.6776" y="-52.9" font-family="Helvetica,sans-Serif" font-size="12.00" fill="#000000">+ number: String</text>
<polyline fill="none" stroke="#000000" points="403.839,-45.3 599.5162,-45.3 "/>
<text text-anchor="middle" x="501.6776" y="-30.5" font-family="Helvetica,sans-Serif" font-size="12.00" fill="#000000">+ setNumber(newNumber: String)</text>
<polyline fill="none" stroke="#000000" points="403.839,-22.9 599.5162,-22.9 "/>
<text text-anchor="middle" x="501.6776" y="-8.1" font-family="Helvetica,sans-Serif" font-size="12.00" fill="#000000">+ getNumber(): String</text>
</g>
<!-- PhoneController&#45;&gt;PhoneModel -->
<g id="edge6" class="edge">
<title>PhoneController-&gt;PhoneModel</title>
<path fill="none" stroke="#000000" d="M495.745,-143.6628C496.6068,-129.3743 497.5069,-114.4503 498.338,-100.6711"/>
<polygon fill="#000000" stroke="#000000" points="501.8498,-100.5792 498.9583,-90.3866 494.8625,-100.1577 501.8498,-100.5792"/>
<text text-anchor="middle" x="509.7295" y="-112.8" font-family="Times,serif" font-size="14.00" fill="#000000">uses</text>
</g>
</g>
</svg>